<svg width="24" height="23" viewBox="0 0 24 23" fill="none" xmlns="http://www.w3.org/2000/svg">
<path d="M16.75 9.135V7.335H19.285V4.815H21.085V7.335H23.65V9.135H21.085V11.685H19.285V9.135H16.75Z" fill="white"/>
<path d="M12.4745 14.03L12.3154 14.1636L12.1477 14.2973C12.0313 14.3873 11.912 14.4718 11.7898 14.5536L9.26991 19.5255L8.76706 16.6618L9.51422 15.5109C9.42331 15.53 9.33241 15.5491 9.23013 15.5627C8.99249 15.6039 8.75246 15.6312 8.51137 15.6445C8.38069 15.6445 8.2472 15.6609 8.11083 15.6609C7.60465 15.6595 7.10034 15.6019 6.60798 15.4891L7.36367 16.6645L6.89207 19.5773L4.1165 14.3082C3.98866 14.2127 3.86368 14.1091 3.74152 14L3.69321 14.0436C-0.0482648 17.1473 3.05882e-05 22.58 3.05882e-05 22.8091V23H16V22.7982C15.7301 16.5227 13.1165 14.4473 12.4745 14.03Z" fill="white"/>
<path d="M7.99999 3C6.8133 3 5.65327 3.35188 4.66657 4.01117C3.67988 4.67046 2.91085 5.60754 2.45673 6.70389C2.0026 7.80025 1.88378 9.00664 2.11529 10.1705C2.3468 11.3344 2.91823 12.4035 3.75735 13.2426C4.59647 14.0817 5.66558 14.6532 6.82947 14.8847C7.99336 15.1162 9.19975 14.9974 10.2961 14.5433C11.3925 14.0891 12.3295 13.3201 12.9888 12.3334C13.6481 11.3467 14 10.1867 14 8.99999C13.9977 7.40938 13.3649 5.88457 12.2401 4.75984C11.1154 3.63511 9.5906 3.00225 7.99999 3V3Z" fill="white"/>
</svg>
