<svg width="35" height="35" viewBox="0 0 35 35" fill="none" xmlns="http://www.w3.org/2000/svg">
<rect width="35" height="35" rx="17.5" fill="#EBF1F8"/>
<path d="M18 17.75C18.4833 17.75 18.8958 17.5792 19.2375 17.2375C19.5792 16.8958 19.75 16.4833 19.75 16C19.75 15.5167 19.5792 15.1042 19.2375 14.7625C18.8958 14.4208 18.4833 14.25 18 14.25C17.5167 14.25 17.1042 14.4208 16.7625 14.7625C16.4208 15.1042 16.25 15.5167 16.25 16C16.25 16.4833 16.4208 16.8958 16.7625 17.2375C17.1042 17.5792 17.5167 17.75 18 17.75ZM18 28C15.3167 25.7167 13.3125 23.5958 11.9875 21.6375C10.6625 19.6792 10 17.8667 10 16.2C10 13.7 10.8042 11.7083 12.4125 10.225C14.0208 8.74167 15.8833 8 18 8C20.1167 8 21.9792 8.74167 23.5875 10.225C25.1958 11.7083 26 13.7 26 16.2C26 17.8667 25.3375 19.6792 24.0125 21.6375C22.6875 23.5958 20.6833 25.7167 18 28Z" fill="#98B8DE"/>
</svg>
