<svg width="35" height="35" viewBox="0 0 35 35" fill="none" xmlns="http://www.w3.org/2000/svg">
<rect width="35" height="35" rx="17.5" fill="#EBF1F8"/>
<path d="M9.425 25C9.045 25 8.7125 24.8687 8.4275 24.6062C8.1425 24.3437 8 24.0375 8 23.6875V12.3125C8 11.9625 8.1425 11.6562 8.4275 11.3937C8.7125 11.1312 9.045 11 9.425 11H25.575C25.955 11 26.2875 11.1312 26.5725 11.3937C26.8575 11.6562 27 11.9625 27 12.3125V23.6875C27 24.0375 26.8575 24.3437 26.5725 24.6062C26.2875 24.8687 25.955 25 25.575 25H9.425ZM17.5 18.3937L25.575 13.5156V12.3125L17.5 17.0812L9.425 12.3125V13.5156L17.5 18.3937Z" fill="#98B8DE"/>
</svg>
