<svg width="35" height="35" viewBox="0 0 35 35" fill="none" xmlns="http://www.w3.org/2000/svg">
<rect width="35" height="35" rx="17.5" fill="#EBF1F8"/>
<path fill-rule="evenodd" clip-rule="evenodd" d="M25.738 26H10.2295V23.5932C10.3108 20.791 12.6542 18.6593 14.07 16.2353V14.1036H16.4296V15.6336H19.6029V14.1036H21.9626V16.2353C23.4923 18.8312 25.738 20.516 25.738 23.5588V26ZM27.9349 16.2353C27.9349 15.8571 28 15.4789 27.9512 15.0663C26.2099 15.668 24.5175 15.4961 22.8576 14.5334C22.7925 15.1866 22.8902 15.7711 23.118 16.3213C23.7038 17.6966 27.8861 18.1607 27.9349 16.2353ZM8.04882 16.2353C8.04882 15.8571 7.98373 15.4789 8.03255 15.0663C9.7738 15.668 11.4662 15.4961 13.1261 14.5334C13.1912 15.1866 13.0936 15.7711 12.8657 16.3213C12.2799 17.6966 8.08137 18.1607 8.04882 16.2353ZM8 14.4818C9.39951 7.58804 26.7795 6.76285 28 14.499C26.3076 14.9975 24.5826 14.7053 22.8576 13.8801C22.9064 13.5191 22.8251 13.2268 22.6461 12.9861C21.6208 11.628 14.2815 11.5764 13.3377 13.0377C13.1912 13.2612 13.1261 13.5363 13.1424 13.8457C11.4337 14.9459 9.70871 15.2038 8 14.4818ZM15.681 17.198C16.0716 17.198 16.3808 17.5247 16.3808 17.9372C16.3808 18.3498 16.0716 18.6765 15.681 18.6765C15.2905 18.6765 14.9813 18.3498 14.9813 17.9372C14.9976 17.5418 15.3068 17.198 15.681 17.198ZM20.1725 21.3239C20.5631 21.3239 20.8723 21.6506 20.8723 22.0632C20.8723 22.4758 20.5631 22.8024 20.1725 22.8024C19.7819 22.8024 19.4727 22.4758 19.4727 22.0632C19.4727 21.6678 19.7819 21.3239 20.1725 21.3239ZM17.9268 21.3239C18.3173 21.3239 18.6265 21.6506 18.6265 22.0632C18.6265 22.4758 18.3173 22.8024 17.9268 22.8024C17.5362 22.8024 17.227 22.4758 17.227 22.0632C17.227 21.6678 17.5362 21.3239 17.9268 21.3239ZM15.681 21.3239C16.0716 21.3239 16.3808 21.6506 16.3808 22.0632C16.3808 22.4758 16.0716 22.8024 15.681 22.8024C15.2905 22.8024 14.9813 22.4758 14.9813 22.0632C14.9976 21.6678 15.3068 21.3239 15.681 21.3239ZM20.1725 19.261C20.5631 19.261 20.8723 19.5876 20.8723 20.0002C20.8723 20.4128 20.5631 20.7394 20.1725 20.7394C19.7819 20.7394 19.4727 20.4128 19.4727 20.0002C19.4727 19.6048 19.7819 19.261 20.1725 19.261ZM17.9268 19.261C18.3173 19.261 18.6265 19.5876 18.6265 20.0002C18.6265 20.4128 18.3173 20.7394 17.9268 20.7394C17.5362 20.7394 17.227 20.4128 17.227 20.0002C17.227 19.6048 17.5362 19.261 17.9268 19.261ZM15.681 19.261C16.0716 19.261 16.3808 19.5876 16.3808 20.0002C16.3808 20.4128 16.0716 20.7394 15.681 20.7394C15.2905 20.7394 14.9813 20.4128 14.9813 20.0002C14.9976 19.6048 15.3068 19.261 15.681 19.261ZM20.1725 17.198C20.5631 17.198 20.8723 17.5247 20.8723 17.9372C20.8723 18.3498 20.5631 18.6765 20.1725 18.6765C19.7819 18.6765 19.4727 18.3498 19.4727 17.9372C19.4727 17.5418 19.7819 17.198 20.1725 17.198ZM17.9268 17.198C18.3173 17.198 18.6265 17.5247 18.6265 17.9372C18.6265 18.3498 18.3173 18.6765 17.9268 18.6765C17.5362 18.6765 17.227 18.3498 17.227 17.9372C17.227 17.5418 17.5362 17.198 17.9268 17.198Z" fill="#98B8DE"/>
</svg>
